<mxfile host="app.diagrams.net" agent="Mozilla/5.0 (Windows NT 10.0; Win64; x64) AppleWebKit/537.36 (KHTML, like Gecko) Chrome/131.0.0.0 Safari/537.36 Edg/131.0.0.0" version="25.0.3">
  <diagram name="Pagina-1" id="iQvibCgRZfx64oXwKK0P">
    <mxGraphModel dx="1042" dy="531" grid="1" gridSize="10" guides="1" tooltips="1" connect="1" arrows="1" fold="1" page="1" pageScale="1" pageWidth="1169" pageHeight="827" math="0" shadow="0">
      <root>
        <mxCell id="0" />
        <mxCell id="1" parent="0" />
        <mxCell id="vUwc5YWKC7FXoKQ0i6MZ-4" style="edgeStyle=orthogonalEdgeStyle;rounded=0;orthogonalLoop=1;jettySize=auto;html=1;entryX=0;entryY=0.5;entryDx=0;entryDy=0;" edge="1" parent="1" source="vUwc5YWKC7FXoKQ0i6MZ-1" target="vUwc5YWKC7FXoKQ0i6MZ-3">
          <mxGeometry relative="1" as="geometry" />
        </mxCell>
        <mxCell id="vUwc5YWKC7FXoKQ0i6MZ-1" value="Playfield 1&lt;div&gt;&lt;br&gt;&lt;/div&gt;&lt;div&gt;bitplane 1,3,5,7&lt;/div&gt;&lt;div&gt;&lt;br&gt;&lt;/div&gt;&lt;div&gt;Tilemap&lt;/div&gt;" style="rounded=0;whiteSpace=wrap;html=1;fontSize=18;" vertex="1" parent="1">
          <mxGeometry x="160" y="120" width="320" height="160" as="geometry" />
        </mxCell>
        <mxCell id="vUwc5YWKC7FXoKQ0i6MZ-5" style="edgeStyle=orthogonalEdgeStyle;rounded=0;orthogonalLoop=1;jettySize=auto;html=1;entryX=1;entryY=0.5;entryDx=0;entryDy=0;" edge="1" parent="1" source="vUwc5YWKC7FXoKQ0i6MZ-2" target="vUwc5YWKC7FXoKQ0i6MZ-3">
          <mxGeometry relative="1" as="geometry" />
        </mxCell>
        <mxCell id="vUwc5YWKC7FXoKQ0i6MZ-2" value="Playfield 2&lt;div&gt;&lt;br&gt;&lt;/div&gt;&lt;div&gt;bitplane 2,4,6,8&lt;/div&gt;&lt;div&gt;&lt;br&gt;&lt;/div&gt;&lt;div&gt;bobs&lt;/div&gt;" style="rounded=0;whiteSpace=wrap;html=1;fontSize=18;" vertex="1" parent="1">
          <mxGeometry x="640" y="120" width="320" height="160" as="geometry" />
        </mxCell>
        <mxCell id="vUwc5YWKC7FXoKQ0i6MZ-3" value="Game playfield&lt;div&gt;&lt;br&gt;&lt;/div&gt;&lt;div&gt;Tilemap + bobs&lt;/div&gt;" style="rounded=0;whiteSpace=wrap;html=1;fontSize=18;" vertex="1" parent="1">
          <mxGeometry x="400" y="440" width="320" height="160" as="geometry" />
        </mxCell>
      </root>
    </mxGraphModel>
  </diagram>
</mxfile>
